# xmcd
#
# Track frame offsets:
#	150
#	11715
#	29608
#	50861
#	64980
#	87324
#	114484
#	135790
#	155054
#	174067
#	197195
#	210294
#	234258
#	255501
#	277424
#	306715
#
# Disc length: 4433 seconds
#
# Revision: 1
# Processed by: cddbd v1.5.2PL0 Copyright (c) Steve Scherf et al.
# Submitted via: audiograbber 1.82.02
#
DISCID=e6114f10
DTITLE=Dixie Chicks - And Evening With The Dixie Chicks - Disc 1
DYEAR=2002
DGENRE=Country
TTITLE0=Intro
TTITLE1=Ready To Run
TTITLE2=Hello Mr Heartache
TTITLE3=If I Fall You're Going Down With Me
TTITLE4=You Were Mine
TTITLE5=Give It Up Or Let Me Go
TTITLE6=Let Him Fly
TTITLE7=Heartbreak Town
TTITLE8=Strong Enough
TTITLE9=Sin Wagon
TTITLE10=Band Intro
TTITLE11=Cowboy Take Me Away
TTITLE12=Goodbye Earl (Take One)
TTITLE13=Wde Open Spaces
TTITLE14=That Lonesome Road
TTITLE15=Goodbye Earl (Take Two)
EXTD=
EXTT0=
EXTT1=
EXTT2=
EXTT3=
EXTT4=
EXTT5=
EXTT6=
EXTT7=
EXTT8=
EXTT9=
EXTT10=
EXTT11=
EXTT12=
EXTT13=
EXTT14=
EXTT15=
PLAYORDER=
